<svg width="256" height="256" viewBox="0 0 256 256" fill="none" xmlns="http://www.w3.org/2000/svg">
  <rect width="256" height="256" rx="64" fill="url(#bg)"/>
  <rect x="18" y="18" width="220" height="220" rx="46" stroke="url(#ring)" stroke-opacity="0.55" stroke-width="2"/>
  <g filter="url(#glow)">
    <rect x="68" y="48" width="24" height="160" rx="12" fill="url(#mark)"/>
    <rect x="100" y="56" width="96" height="24" rx="12" fill="url(#mark)"/>
    <rect x="100" y="94" width="76" height="22" rx="11" fill="url(#markSoft)"/>
    <rect x="100" y="130" width="58" height="20" rx="10" fill="url(#markSoft)"/>
    <path d="M92 180H144C176.033 180 202 154.033 202 122V120H180V122C180 141.882 163.882 158 144 158H92V180Z" fill="url(#accent)"/>
  </g>
  <defs>
    <linearGradient id="bg" x1="36" y1="24" x2="212" y2="238" gradientUnits="userSpaceOnUse">
      <stop stop-color="#101A30"/>
      <stop offset="0.52" stop-color="#09101D"/>
      <stop offset="1" stop-color="#05070D"/>
    </linearGradient>
    <linearGradient id="ring" x1="38" y1="30" x2="218" y2="226" gradientUnits="userSpaceOnUse">
      <stop stop-color="#78E0FF"/>
      <stop offset="1" stop-color="#8DFFCB"/>
    </linearGradient>
    <linearGradient id="mark" x1="76" y1="56" x2="192" y2="164" gradientUnits="userSpaceOnUse">
      <stop stop-color="#F5FBFF"/>
      <stop offset="0.55" stop-color="#B3F0FF"/>
      <stop offset="1" stop-color="#7FE5FF"/>
    </linearGradient>
    <linearGradient id="markSoft" x1="112" y1="94" x2="172" y2="152" gradientUnits="userSpaceOnUse">
      <stop stop-color="#DDF8FF"/>
      <stop offset="1" stop-color="#87EAFF"/>
    </linearGradient>
    <linearGradient id="accent" x1="104" y1="160" x2="200" y2="128" gradientUnits="userSpaceOnUse">
      <stop stop-color="#88F1FF"/>
      <stop offset="1" stop-color="#5DE4C2"/>
    </linearGradient>
    <filter id="glow" x="48" y="32" width="174" height="168" filterUnits="userSpaceOnUse" color-interpolation-filters="sRGB">
      <feFlood flood-opacity="0" result="BackgroundImageFix"/>
      <feBlend mode="normal" in="SourceGraphic" in2="BackgroundImageFix" result="shape"/>
      <feGaussianBlur stdDeviation="6" result="effect1_foregroundBlur"/>
    </filter>
  </defs>
</svg>
